<svg width="1097" height="124" viewBox="0 0 1097 124" fill="none" xmlns="http://www.w3.org/2000/svg">
<path d="M90.9302 60.9842V61.4778C90.9302 61.3133 90.9302 61.1488 90.9302 60.9842ZM90.9302 42.0629V42.5565C90.9302 42.392 90.9302 42.2275 90.9302 42.0629ZM90.9302 42.5565C90.9302 42.392 90.9302 42.2275 90.9302 42.0629C90.6011 25.9387 77.4385 12.9406 61.3142 12.9406H0.437012V124H22.1554V34.8235H60.8206C65.4276 34.8235 69.0473 38.4432 69.0473 43.0501V60.4906C69.0473 65.0976 65.4276 68.7173 60.8206 68.7173H37.2924L30.7111 90.6002H61.3142C77.4385 90.6002 90.6011 77.6021 90.9302 61.4778C90.9302 61.3133 90.9302 61.1488 90.9302 60.9842V42.5565Z" fill="white"/>
<path d="M171 28.0776H127.399C115.388 28.0776 105.68 37.7851 105.68 49.9605V102.282C105.68 114.293 115.388 124 127.399 124H171C183.175 124 192.883 114.293 192.883 102.282V49.9605C192.883 37.7851 183.175 28.0776 171 28.0776ZM171 97.8396C171 100.308 169.19 102.282 166.722 102.282H131.841C129.373 102.282 127.399 100.308 127.399 97.8396V54.2384C127.399 51.7704 129.373 49.9605 131.841 49.9605H166.722C169.19 49.9605 171 51.7704 171 54.2384V97.8396Z" fill="white"/>
<path d="M260.341 28.0776H241.256L230.232 38.9368V28.0776H208.513V124H230.232V54.2384C230.232 51.7704 232.206 49.9605 234.674 49.9605H253.925L260.341 28.0776Z" fill="white"/>
<path d="M296.374 102.282C293.906 102.282 291.932 100.308 291.932 97.8396V49.9605H316.118L322.699 28.0776H291.932V6.35925H270.213V102.282C270.213 114.293 279.921 124 291.932 124H322.699V102.282H296.374Z" fill="white"/>
<path d="M368.672 43.3792L357.649 54.2384V26.7614C357.649 24.2934 359.623 22.4835 362.091 22.4835H388.087L394.669 0.600586H357.649C345.638 0.600586 335.93 10.308 335.93 22.4835V124H357.649V65.0976H390.391V43.3792H368.672Z" fill="white"/>
<path d="M470.662 28.0776H427.061C415.05 28.0776 405.343 37.7851 405.343 49.9605V102.282C405.343 114.293 415.05 124 427.061 124H470.662C482.838 124 492.545 114.293 492.545 102.282V49.9605C492.545 37.7851 482.838 28.0776 470.662 28.0776ZM470.662 97.8396C470.662 100.308 468.852 102.282 466.384 102.282H431.503C429.035 102.282 427.061 100.308 427.061 97.8396V54.2384C427.061 51.7704 429.035 49.9605 431.503 49.9605H466.384C468.852 49.9605 470.662 51.7704 470.662 54.2384V97.8396Z" fill="white"/>
<path d="M529.894 124V0.600586H508.176V124H529.894Z" fill="white"/>
<path d="M545.453 124V28.0776H567.171V124H545.453ZM545.453 0.600586V21.0027L567.171 14.4214V0.600586H545.453Z" fill="white"/>
<path d="M648.049 28.0776H604.448C592.437 28.0776 582.73 37.7851 582.73 49.9605V102.282C582.73 114.293 592.437 124 604.448 124H648.049C660.225 124 669.932 114.293 669.932 102.282V49.9605C669.932 37.7851 660.225 28.0776 648.049 28.0776ZM648.049 97.8396C648.049 100.308 646.24 102.282 643.772 102.282H608.891C606.423 102.282 604.448 100.308 604.448 97.8396V54.2384C604.448 51.7704 606.423 49.9605 608.891 49.9605H643.772C646.24 49.9605 648.049 51.7704 648.049 54.2384V97.8396Z" fill="white"/>
<path d="M918.033 90.2524C919.368 90.2524 920.347 89.1844 920.347 87.8494V64.2644C920.347 62.9294 919.368 61.9504 918.033 61.9504H899.165C897.83 61.9504 896.762 62.9294 896.762 64.2644V87.8494C896.762 89.1844 897.83 90.2524 899.165 90.2524H918.033Z" fill="white"/>
<path fill-rule="evenodd" clip-rule="evenodd" d="M735 28.0004C722.85 28.0004 713 37.8501 713 50.0004V102C713 114.151 722.85 124 735 124H1075C1087.15 124 1097 114.151 1097 102V50.0004C1097 37.8501 1087.15 28.0004 1075 28.0004H735ZM770.333 50.1134C776.919 50.1134 782.17 55.3644 782.17 61.9504V102H770.333V96.1264L764.459 102H746.748C740.251 102 735 96.7494 735 90.2524V81.9754C735 75.4784 740.251 70.1384 746.748 70.1384H762.501L765.972 81.9754H749.151C747.816 81.9754 746.748 83.0434 746.748 84.2894V87.8494C746.748 89.1844 747.816 90.2524 749.151 90.2524H770.333V64.2644C770.333 62.9294 769.354 61.9504 768.019 61.9504H739.717L743.277 50.1134H770.333ZM804.776 90.2524H829.785V102H802.373C795.876 102 790.625 96.7494 790.625 90.2524V61.9504C790.625 55.3644 795.876 50.1134 802.373 50.1134H829.785L826.225 61.9504H804.776C803.441 61.9504 802.373 62.9294 802.373 64.2644V87.8494C802.373 89.1844 803.441 90.2524 804.776 90.2524ZM851.97 90.2524H876.979V102H849.567C843.07 102 837.819 96.7494 837.819 90.2524V61.9504C837.819 55.3644 843.07 50.1134 849.567 50.1134H876.979L873.419 61.9504H851.97C850.635 61.9504 849.567 62.9294 849.567 64.2644V87.8494C849.567 89.1844 850.635 90.2524 851.97 90.2524ZM896.762 50.1134H920.347C926.933 50.1134 932.184 55.3644 932.184 61.9504V90.2524C932.184 96.7494 926.933 102 920.347 102H896.762C890.265 102 885.014 96.7494 885.014 90.2524V61.9504C885.014 55.3644 890.265 50.1134 896.762 50.1134ZM973.302 87.8494V50.1134H985.139V90.2524C985.139 96.7494 979.888 102 973.302 102H952.387C945.89 102 940.639 96.7494 940.639 90.2524V50.1134H952.387V87.8494C952.387 89.1844 953.455 90.2524 954.79 90.2524H970.988C972.323 90.2524 973.302 89.1844 973.302 87.8494ZM1026.23 50.1134C1032.82 50.1134 1038.07 55.3644 1038.07 61.9504V102H1026.23V64.2644C1026.23 62.9294 1025.25 61.9504 1023.92 61.9504H1005.32V102H993.569V50.1134H1005.32V55.9874L1011.28 50.1134H1026.23ZM1058.25 87.8494C1058.25 89.1844 1059.32 90.2524 1060.65 90.2524H1074.89V102H1058.25C1051.75 102 1046.5 96.7494 1046.5 90.2524V38.3654H1058.25V50.1134H1074.89L1071.33 61.9504H1058.25V87.8494Z" fill="white"/>
</svg>
