<svg width="505" height="95" viewBox="0 0 505 95" fill="none" xmlns="http://www.w3.org/2000/svg">
<path d="M488.225 49.4414H468.297L463.252 66.2162H505V37.8378C505 28.5044 497.559 21.063 488.225 21.063H454.802C445.595 21.063 438.153 28.5044 438.153 37.8378V77.9459C438.153 87.1531 445.595 94.5946 454.802 94.5946H496.676L501.595 77.9459H458.207C456.315 77.9459 454.802 76.4324 454.802 74.5405V41.1171C454.802 39.2252 456.315 37.8378 458.207 37.8378H484.946C486.838 37.8378 488.225 39.2252 488.225 41.1171V49.4414Z" fill="black"/>
<path d="M411.894 21.063L395.876 77.3153L379.858 21.063H361.191L383.264 94.5946H408.489L430.561 21.063H411.894Z" fill="black"/>
<path d="M337.03 94.5947V21.0631H353.679V94.5947H337.03ZM337.03 0V15.6397L353.679 10.5946V0H337.03Z" fill="black"/>
<path d="M306.708 77.9459C304.816 77.9459 303.302 76.4324 303.302 74.5405V37.8378H321.843L326.888 21.063H303.302V4.41431H286.654V77.9459C286.654 87.1531 294.095 94.5946 303.302 94.5946H326.888V77.9459H306.708Z" fill="black"/>
<path d="M258.078 94.5947V21.0631H274.727V94.5947H258.078ZM258.078 0V15.6397L274.727 10.5946V0H258.078Z" fill="black"/>
<path d="M127.974 94.5947V21.0631H144.623V94.5947H127.974ZM127.974 0V15.6397L144.623 10.5946V0H127.974Z" fill="black"/>
<path d="M120.406 21.063H105.776L97.3252 29.3873V21.063H80.6765V94.5946H97.3252V41.1171C97.3252 39.2252 98.8387 37.8378 100.731 37.8378H115.487L120.406 21.063Z" fill="black"/>
<path d="M69.3694 46.2883V46.6667C69.3694 46.5406 69.3694 46.4145 69.3694 46.2883ZM69.3694 31.7838V32.1622C69.3694 32.0361 69.3694 31.9099 69.3694 31.7838ZM69.3694 32.1622C69.3694 32.0361 69.3694 31.9099 69.3694 31.7838C69.1172 19.4234 59.0271 9.45947 46.6667 9.45947H0V94.5947H16.6487V26.2343H46.2883C49.8199 26.2343 52.5946 29.009 52.5946 32.5406V45.91C52.5946 49.4415 49.8199 52.2163 46.2883 52.2163H28.2523L23.2072 68.9911H46.6667C59.0271 68.9911 69.1172 59.0271 69.3694 46.6667C69.3694 46.5406 69.3694 46.4145 69.3694 46.2883V32.1622Z" fill="black"/>
<path d="M209.903 27.6189V94.8248H192.872V18.4126L209.903 27.6189Z" fill="black"/>
<path d="M192.872 18.4126C199.931 18.4126 207.158 21.6053 209.903 27.6189L192.872 39.3569C192.872 37.396 192.301 35.7996 190.34 35.7996H173.308V27.1586L184.599 18.4126H192.872Z" fill="black"/>
<path d="M246.729 27.6189V94.8248H229.697V18.4126L246.729 27.6189Z" fill="black"/>
<path d="M229.697 18.4126C236.756 18.4126 243.983 21.6053 246.729 27.6189L229.697 39.3569C229.697 37.396 229.126 35.7996 227.165 35.7996H209.673L209.443 27.1586L221.424 18.4126H229.697Z" fill="black"/>
<path d="M173.303 18.4126V94.6278H156.047V18.4126H173.303Z" fill="black"/>
</svg>
