<svg width="506" height="95" viewBox="0 0 506 95" fill="none" xmlns="http://www.w3.org/2000/svg">
<path d="M488.298 49.4489H468.367L463.321 66.2262H505.075V37.8436C505.075 28.5088 497.633 21.0663 488.298 21.0663H454.87C445.661 21.0663 438.219 28.5088 438.219 37.8436V77.9577C438.219 87.1663 445.661 94.6088 454.87 94.6088H496.75L501.67 77.9577H458.276C456.383 77.9577 454.87 76.4439 454.87 74.5518V41.1233C454.87 39.2311 456.383 37.8436 458.276 37.8436H485.018C486.911 37.8436 488.298 39.2311 488.298 41.1233V49.4489Z" fill="black"/>
<path d="M411.956 21.0663L395.935 77.327L379.915 21.0663H361.245L383.321 94.6088H408.55L430.625 21.0663H411.956Z" fill="black"/>
<path d="M337.081 94.6088V21.0662H353.732V94.6088H337.081ZM337.081 0V15.642L353.732 10.5962V0H337.081Z" fill="black"/>
<path d="M306.754 77.9577C304.862 77.9577 303.348 76.444 303.348 74.5518V37.8436H321.891L326.937 21.0663H303.348V4.41512H286.697V77.9577C286.697 87.1663 294.139 94.6089 303.348 94.6089H326.937V77.9577H306.754Z" fill="black"/>
<path d="M258.117 94.6088V21.0662H274.768V94.6088H258.117ZM258.117 0V15.642L274.768 10.5962V0H258.117Z" fill="black"/>
<path d="M127.993 94.6088V21.0662H144.644V94.6088H127.993ZM127.993 0V15.642L144.644 10.5962V0H127.993Z" fill="black"/>
<path d="M120.424 21.0663H80.6885V94.6088H97.3397V41.1233C97.3397 39.2311 98.8534 37.8436 100.746 37.8436H115.505L120.424 21.0663Z" fill="black"/>
<path d="M69.3798 46.2953V46.6737C69.3798 46.5476 69.3798 46.4214 69.3798 46.2953ZM69.3798 31.7886V32.167C69.3798 32.0409 69.3798 31.9147 69.3798 31.7886ZM69.3798 32.167C69.3798 32.0409 69.3798 31.9147 69.3798 31.7886C69.1275 19.4264 59.0359 9.4609 46.6737 9.4609H0V94.6088H16.6512V26.2382H46.2952C49.8273 26.2382 52.6025 29.0134 52.6025 32.5455V45.9168C52.6025 49.4489 49.8273 52.2241 46.2952 52.2241H28.2565L23.2107 69.0014H46.6737C59.0359 69.0014 69.1275 59.0359 69.3798 46.6737C69.3798 46.5476 69.3798 46.4214 69.3798 46.2953V32.167Z" fill="black"/>
<path d="M209.935 27.623V94.839H192.901V18.4153L209.935 27.623Z" fill="black"/>
<path d="M192.901 18.4153C199.961 18.4153 207.189 21.6086 209.935 27.623L192.901 39.3628C192.901 37.4016 192.33 35.8049 190.369 35.8049H173.334L173.329 18.4153H192.901Z" fill="black"/>
<path d="M246.766 27.623V94.839H229.731V18.4153L246.766 27.623Z" fill="black"/>
<path d="M229.731 18.4153C236.792 18.4153 244.02 21.6086 246.766 27.623L229.731 39.3628C229.731 37.4016 229.16 35.8049 227.199 35.8049H209.705L209.474 27.1626L221.457 18.4153H229.731Z" fill="black"/>
<path d="M173.329 18.4153V94.642H156.07V18.4153H173.329Z" fill="black"/>
</svg>
