<svg width="670" height="124" viewBox="0 0 670 124" fill="none" xmlns="http://www.w3.org/2000/svg">
<path d="M90.9302 60.9838V61.4774C90.9302 61.3129 90.9302 61.1484 90.9302 60.9838ZM90.9302 42.0625V42.5561C90.9302 42.3916 90.9302 42.2271 90.9302 42.0625ZM90.9302 42.5561C90.9302 42.3916 90.9302 42.2271 90.9302 42.0625C90.6011 25.9383 77.4385 12.9402 61.3142 12.9402H0.437012V124H22.1554V34.8231H60.8206C65.4276 34.8231 69.0473 38.4428 69.0473 43.0497V60.4902C69.0473 65.0972 65.4276 68.7169 60.8206 68.7169H37.2924L30.7111 90.5998H61.3142C77.4385 90.5998 90.6011 77.6017 90.9302 61.4774C90.9302 61.3129 90.9302 61.1484 90.9302 60.9838V42.5561ZM171 28.0772H127.399C115.388 28.0772 105.68 37.7847 105.68 49.9601V102.282C105.68 114.293 115.388 124 127.399 124H171C183.175 124 192.883 114.293 192.883 102.282V49.9601C192.883 37.7847 183.175 28.0772 171 28.0772ZM171 97.8392C171 100.307 169.19 102.282 166.722 102.282H131.841C129.373 102.282 127.399 100.307 127.399 97.8392V54.238C127.399 51.77 129.373 49.9601 131.841 49.9601H166.722C169.19 49.9601 171 51.77 171 54.238V97.8392ZM260.341 28.0772H241.256L230.232 38.9364V28.0772H208.513V124H230.232V54.238C230.232 51.77 232.206 49.9601 234.674 49.9601H253.925L260.341 28.0772ZM296.374 102.282C293.906 102.282 291.932 100.307 291.932 97.8392V49.9601H316.118L322.699 28.0772H291.932V6.35885H270.213V102.282C270.213 114.293 279.921 124 291.932 124H322.699V102.282H296.374ZM368.672 43.3788L357.649 54.238V26.761C357.649 24.293 359.623 22.4831 362.091 22.4831H388.087L394.669 0.600191H357.649C345.638 0.600191 335.93 10.3076 335.93 22.4831V124H357.649V65.0972H390.391V43.3788H368.672ZM470.662 28.0772H427.061C415.05 28.0772 405.343 37.7847 405.343 49.9601V102.282C405.343 114.293 415.05 124 427.061 124H470.662C482.838 124 492.545 114.293 492.545 102.282V49.9601C492.545 37.7847 482.838 28.0772 470.662 28.0772ZM470.662 97.8392C470.662 100.307 468.852 102.282 466.384 102.282H431.503C429.035 102.282 427.061 100.307 427.061 97.8392V54.238C427.061 51.77 429.035 49.9601 431.503 49.9601H466.384C468.852 49.9601 470.662 51.77 470.662 54.238V97.8392ZM529.894 124V0.600191H508.176V124H529.894ZM545.453 124V28.0772H567.171V124H545.453ZM545.453 0.600191V21.0023L567.171 14.421V0.600191H545.453ZM648.049 28.0772H604.448C592.437 28.0772 582.73 37.7847 582.73 49.9601V102.282C582.73 114.293 592.437 124 604.448 124H648.049C660.225 124 669.932 114.293 669.932 102.282V49.9601C669.932 37.7847 660.225 28.0772 648.049 28.0772ZM648.049 97.8392C648.049 100.307 646.24 102.282 643.772 102.282H608.891C606.423 102.282 604.448 100.307 604.448 97.8392V54.238C604.448 51.77 606.423 49.9601 608.891 49.9601H643.772C646.24 49.9601 648.049 51.77 648.049 54.238V97.8392Z" fill="white"/>
</svg>
