<svg width="1260" height="201" viewBox="0 0 1260 201" fill="none" xmlns="http://www.w3.org/2000/svg">
<path d="M90.9302 91.9838V92.4774C90.9302 92.3129 90.9302 92.1484 90.9302 91.9838ZM90.9302 73.0625V73.5561C90.9302 73.3916 90.9302 73.2271 90.9302 73.0625ZM90.9302 73.5561C90.9302 73.3916 90.9302 73.2271 90.9302 73.0625C90.6011 56.9383 77.4385 43.9402 61.3142 43.9402H0.437012V155H22.1554V65.8231H60.8206C65.4276 65.8231 69.0473 69.4428 69.0473 74.0497V91.4902C69.0473 96.0972 65.4276 99.7169 60.8206 99.7169H37.2924L30.7111 121.6H61.3142C77.4385 121.6 90.6011 108.602 90.9302 92.4774C90.9302 92.3129 90.9302 92.1484 90.9302 91.9838V73.5561ZM171 59.0772H127.399C115.388 59.0772 105.68 68.7847 105.68 80.9601V133.282C105.68 145.293 115.388 155 127.399 155H171C183.175 155 192.883 145.293 192.883 133.282V80.9601C192.883 68.7847 183.175 59.0772 171 59.0772ZM171 128.839C171 131.307 169.19 133.282 166.722 133.282H131.841C129.373 133.282 127.399 131.307 127.399 128.839V85.238C127.399 82.77 129.373 80.9601 131.841 80.9601H166.722C169.19 80.9601 171 82.77 171 85.238V128.839ZM260.341 59.0772H241.256L230.232 69.9364V59.0772H208.513V155H230.232V85.238C230.232 82.77 232.206 80.9601 234.674 80.9601H253.925L260.341 59.0772ZM296.374 133.282C293.906 133.282 291.932 131.307 291.932 128.839V80.9601H316.118L322.699 59.0772H291.932V37.3589H270.213V133.282C270.213 145.293 279.921 155 291.932 155H322.699V133.282H296.374ZM368.672 74.3788L357.649 85.238V57.761C357.649 55.293 359.623 53.4831 362.091 53.4831H388.087L394.669 31.6002H357.649C345.638 31.6002 335.93 41.3076 335.93 53.4831V155H357.649V96.0972H390.391V74.3788H368.672ZM470.662 59.0772H427.061C415.05 59.0772 405.343 68.7847 405.343 80.9601V133.282C405.343 145.293 415.05 155 427.061 155H470.662C482.838 155 492.545 145.293 492.545 133.282V80.9601C492.545 68.7847 482.838 59.0772 470.662 59.0772ZM470.662 128.839C470.662 131.307 468.852 133.282 466.384 133.282H431.503C429.035 133.282 427.061 131.307 427.061 128.839V85.238C427.061 82.77 429.035 80.9601 431.503 80.9601H466.384C468.852 80.9601 470.662 82.77 470.662 85.238V128.839ZM529.894 155V31.6002H508.176V155H529.894ZM545.453 155V59.0772H567.171V155H545.453ZM545.453 31.6002V52.0023L567.171 45.421V31.6002H545.453ZM648.049 59.0772H604.448C592.437 59.0772 582.73 68.7847 582.73 80.9601V133.282C582.73 145.293 592.437 155 604.448 155H648.049C660.225 155 669.932 145.293 669.932 133.282V80.9601C669.932 68.7847 660.225 59.0772 648.049 59.0772ZM648.049 128.839C648.049 131.307 646.24 133.282 643.772 133.282H608.891C606.423 133.282 604.448 131.307 604.448 128.839V85.238C604.448 82.77 606.423 80.9601 608.891 80.9601H643.772C646.24 80.9601 648.049 82.77 648.049 85.238V128.839Z" fill="white"/>
<rect x="713" y="59" width="547" height="96" rx="22" fill="white"/>
<path d="M782.17 92.95C782.17 86.364 776.919 81.113 770.333 81.113H753.957L750.397 92.95H768.019C769.354 92.95 770.333 93.929 770.333 95.264V118.849C770.333 120.184 769.354 121.252 768.019 121.252H746.748V66.25H735V133H746.748V127.126L752.711 133H770.333C776.919 133 782.17 127.749 782.17 121.252V92.95ZM836.015 81.113H823.733L811.54 121.697L799.347 81.113H787.065L802.64 133H808.158L803.708 147.863H815.99L836.015 81.113ZM916.059 98.913V99.18C916.059 99.091 916.059 99.002 916.059 98.913ZM916.059 88.678V88.945C916.059 88.856 916.059 88.767 916.059 88.678ZM916.059 88.945C916.059 88.856 916.059 88.767 916.059 88.678C915.881 79.956 908.761 72.925 900.039 72.925H867.109V133H878.857V84.762H899.772C902.264 84.762 904.222 86.72 904.222 89.212V98.646C904.222 101.138 902.264 103.096 899.772 103.096H887.045L883.485 114.933H900.039C908.761 114.933 915.881 107.902 916.059 99.18C916.059 99.091 916.059 99.002 916.059 98.913V88.945ZM952.073 81.113H941.749L935.786 86.987V81.113H924.038V133H935.786V95.264C935.786 93.929 936.854 92.95 938.189 92.95H948.602L952.073 81.113ZM957.413 133V81.113H969.161V133H957.413ZM957.413 66.25V77.286L969.161 73.726V66.25H957.413ZM1054.74 92.95C1054.74 86.364 1049.49 81.113 1042.99 81.113H1027.95L1021.01 88.055C1019.14 83.961 1015.05 81.113 1010.24 81.113H995.288L989.325 86.987V81.113H977.577V133H989.325V92.95H1007.93C1009.26 92.95 1010.24 93.929 1010.24 95.264V133H1022.08V92.95H1040.59C1041.92 92.95 1042.99 93.929 1042.99 95.264V133H1054.74V92.95ZM1063.19 133V81.113H1074.94V133H1063.19ZM1063.19 66.25V77.286L1074.94 73.726V66.25H1063.19ZM1097.5 121.252C1096.17 121.252 1095.1 120.184 1095.1 118.849V92.95H1108.18L1111.74 81.113H1095.1V69.365H1083.35V121.252C1083.35 127.749 1088.6 133 1095.1 133H1111.74V121.252H1097.5ZM1118.9 133V81.113H1130.65V133H1118.9ZM1118.9 66.25V77.286L1130.65 73.726V66.25H1118.9ZM1171.73 81.113L1160.42 120.807L1149.12 81.113H1135.95L1151.52 133H1169.32L1184.9 81.113H1171.73ZM1225.59 101.138H1211.53L1207.97 112.975H1237.43V92.95C1237.43 86.364 1232.17 81.113 1225.59 81.113H1202C1195.51 81.113 1190.26 86.364 1190.26 92.95V121.252C1190.26 127.749 1195.51 133 1202 133H1231.55L1235.02 121.252H1204.41C1203.07 121.252 1202 120.184 1202 118.849V95.264C1202 93.929 1203.07 92.95 1204.41 92.95H1223.27C1224.61 92.95 1225.59 93.929 1225.59 95.264V101.138Z" fill="#151718"/>
</svg>
