<svg width="670" height="325" viewBox="0 0 670 325" fill="none" xmlns="http://www.w3.org/2000/svg">
<path d="M176.732 87.1446C176.732 70.8558 163.404 57.5286 147.116 57.5286H116.183C111.741 57.5286 107.957 53.9089 107.957 49.302V43.0497C107.957 38.4428 111.741 34.8231 116.183 34.8231H161.924L168.505 12.9402H115.854C99.5656 12.9402 86.2384 26.2674 86.2384 42.5561V49.7956C86.2384 66.0844 99.5656 79.4115 115.854 79.4115H146.622C151.229 79.4115 154.849 83.0313 154.849 87.6382V94.055C154.849 98.4974 151.229 102.282 146.622 102.282H92.8197L86.2384 124H147.116C163.404 124 176.732 110.673 176.732 94.384V87.1446ZM214.429 102.282C211.961 102.282 209.987 100.307 209.987 97.8392V49.9601H234.173L240.754 28.0772H209.987V6.35885H188.268V102.282C188.268 114.293 197.976 124 209.987 124H240.754V102.282H214.429ZM341.188 49.9601C341.188 37.7847 331.48 28.0772 319.305 28.0772H269.287L262.705 49.9601H315.027C317.495 49.9601 319.305 51.77 319.305 54.238V102.282H280.146C277.678 102.282 275.703 100.307 275.703 97.8392V91.2579C275.703 88.9545 277.678 86.9801 280.146 86.9801H311.243L304.826 65.0972H275.703C263.692 65.0972 253.985 74.9691 253.985 86.9801V102.282C253.985 114.293 263.692 124 275.703 124H308.445L319.305 113.141V124H341.188V49.9601ZM444.021 49.9601C444.021 37.7847 434.313 28.0772 422.138 28.0772H391.864L385.282 49.9601H417.86C420.328 49.9601 422.138 51.77 422.138 54.238V97.8392C422.138 100.307 420.328 102.282 417.86 102.282H378.537V0.600191H356.818V124H378.537V113.141L389.56 124H422.138C434.313 124 444.021 114.293 444.021 102.282V49.9601ZM481.37 124V0.600191H459.651V124H481.37ZM562.248 65.0972H536.252L529.671 86.9801H584.131V49.9601C584.131 37.7847 574.424 28.0772 562.248 28.0772H518.647C506.636 28.0772 496.928 37.7847 496.928 49.9601V102.282C496.928 114.293 506.636 124 518.647 124H573.272L579.689 102.282H523.089C520.621 102.282 518.647 100.307 518.647 97.8392V54.238C518.647 51.77 520.621 49.9601 523.089 49.9601H557.97C560.438 49.9601 562.248 51.77 562.248 54.238V65.0972ZM90.9302 261.984V262.477C90.9302 262.313 90.9302 262.148 90.9302 261.984ZM90.9302 243.063V243.556C90.9302 243.392 90.9302 243.227 90.9302 243.063ZM90.9302 243.556C90.9302 243.392 90.9302 243.227 90.9302 243.063C90.6011 226.938 77.4385 213.94 61.3142 213.94H0.437012V325H22.1554V235.823H60.8206C65.4276 235.823 69.0473 239.443 69.0473 244.05V261.49C69.0473 266.097 65.4276 269.717 60.8206 269.717H37.2924L30.7111 291.6H61.3142C77.4385 291.6 90.6011 278.602 90.9302 262.477C90.9302 262.313 90.9302 262.148 90.9302 261.984V243.556ZM171 229.077H127.399C115.388 229.077 105.68 238.785 105.68 250.96V303.282C105.68 315.293 115.388 325 127.399 325H171C183.175 325 192.883 315.293 192.883 303.282V250.96C192.883 238.785 183.175 229.077 171 229.077ZM171 298.839C171 301.307 169.19 303.282 166.722 303.282H131.841C129.373 303.282 127.399 301.307 127.399 298.839V255.238C127.399 252.77 129.373 250.96 131.841 250.96H166.722C169.19 250.96 171 252.77 171 255.238V298.839ZM260.341 229.077H241.256L230.232 239.936V229.077H208.513V325H230.232V255.238C230.232 252.77 232.206 250.96 234.674 250.96H253.925L260.341 229.077ZM296.374 303.282C293.906 303.282 291.932 301.307 291.932 298.839V250.96H316.118L322.699 229.077H291.932V207.359H270.213V303.282C270.213 315.293 279.921 325 291.932 325H322.699V303.282H296.374ZM368.672 244.379L357.649 255.238V227.761C357.649 225.293 359.623 223.483 362.091 223.483H388.087L394.668 201.6H357.649C345.638 201.6 335.93 211.308 335.93 223.483V325H357.649V266.097H390.391V244.379H368.672ZM470.662 229.077H427.061C415.05 229.077 405.343 238.785 405.343 250.96V303.282C405.343 315.293 415.05 325 427.061 325H470.662C482.838 325 492.545 315.293 492.545 303.282V250.96C492.545 238.785 482.838 229.077 470.662 229.077ZM470.662 298.839C470.662 301.307 468.852 303.282 466.384 303.282H431.503C429.035 303.282 427.061 301.307 427.061 298.839V255.238C427.061 252.77 429.035 250.96 431.503 250.96H466.384C468.852 250.96 470.662 252.77 470.662 255.238V298.839ZM529.894 325V201.6H508.176V325H529.894ZM545.453 325V229.077H567.171V325H545.453ZM545.453 201.6V222.002L567.171 215.421V201.6H545.453ZM648.049 229.077H604.448C592.437 229.077 582.73 238.785 582.73 250.96V303.282C582.73 315.293 592.437 325 604.448 325H648.049C660.225 325 669.932 315.293 669.932 303.282V250.96C669.932 238.785 660.225 229.077 648.049 229.077ZM648.049 298.839C648.049 301.307 646.24 303.282 643.772 303.282H608.89C606.422 303.282 604.448 301.307 604.448 298.839V255.238C604.448 252.77 606.422 250.96 608.89 250.96H643.772C646.24 250.96 648.049 252.77 648.049 255.238V298.839Z" fill="white"/>
</svg>
