<svg width="1233" height="124" viewBox="0 0 1233 124" fill="none" xmlns="http://www.w3.org/2000/svg">
<path d="M91.0047 87.1446C91.0047 70.8558 77.6775 57.5286 61.3888 57.5286H30.4566C26.0142 57.5286 22.2299 53.9089 22.2299 49.302V43.0497C22.2299 38.4428 26.0142 34.8231 30.4566 34.8231H76.1967L82.7781 12.9402H30.1275C13.8387 12.9402 0.511536 26.2674 0.511536 42.5561V49.7956C0.511536 66.0844 13.8387 79.4115 30.1275 79.4115H60.8952C65.5021 79.4115 69.1218 83.0313 69.1218 87.6382V94.055C69.1218 98.4974 65.5021 102.282 60.8952 102.282H7.09286L0.511536 124H61.3888C77.6775 124 91.0047 110.673 91.0047 94.384V87.1446ZM128.702 102.282C126.234 102.282 124.26 100.307 124.26 97.8392V49.9601H148.446L155.027 28.0772H124.26V6.35885H102.541V102.282C102.541 114.293 112.249 124 124.26 124H155.027V102.282H128.702ZM255.461 49.9601C255.461 37.7847 245.753 28.0772 233.578 28.0772H183.56L176.978 49.9601H229.3C231.768 49.9601 233.578 51.77 233.578 54.238V102.282H194.419C191.951 102.282 189.977 100.307 189.977 97.8392V91.2579C189.977 88.9545 191.951 86.9801 194.419 86.9801H225.516L219.099 65.0972H189.977C177.966 65.0972 168.258 74.9691 168.258 86.9801V102.282C168.258 114.293 177.966 124 189.977 124H222.719L233.578 113.141V124H255.461V49.9601ZM358.294 49.9601C358.294 37.7847 348.586 28.0772 336.411 28.0772H306.137L299.556 49.9601H332.133C334.601 49.9601 336.411 51.77 336.411 54.238V97.8392C336.411 100.307 334.601 102.282 332.133 102.282H292.81V0.600191H271.091V124H292.81V113.141L303.833 124H336.411C348.586 124 358.294 114.293 358.294 102.282V49.9601ZM395.643 124V0.600191H373.924V124H395.643ZM476.521 65.0972H450.525L443.944 86.9801H498.404V49.9601C498.404 37.7847 488.697 28.0772 476.521 28.0772H432.92C420.909 28.0772 411.202 37.7847 411.202 49.9601V102.282C411.202 114.293 420.909 124 432.92 124H487.545L493.962 102.282H437.362C434.894 102.282 432.92 100.307 432.92 97.8392V54.238C432.92 51.77 434.894 49.9601 437.362 49.9601H472.243C474.711 49.9601 476.521 51.77 476.521 54.238V65.0972ZM653.856 60.9838V61.4774C653.856 61.3129 653.856 61.1484 653.856 60.9838ZM653.856 42.0625V42.5561C653.856 42.3916 653.856 42.2271 653.856 42.0625ZM653.856 42.5561C653.856 42.3916 653.856 42.2271 653.856 42.0625C653.527 25.9383 640.364 12.9402 624.24 12.9402H563.362V124H585.081V34.8231H623.746C628.353 34.8231 631.973 38.4428 631.973 43.0497V60.4902C631.973 65.0972 628.353 68.7169 623.746 68.7169H600.218L593.637 90.5998H624.24C640.364 90.5998 653.527 77.6017 653.856 61.4774C653.856 61.3129 653.856 61.1484 653.856 60.9838V42.5561ZM733.925 28.0772H690.324C678.313 28.0772 668.606 37.7847 668.606 49.9601V102.282C668.606 114.293 678.313 124 690.324 124H733.925C746.101 124 755.808 114.293 755.808 102.282V49.9601C755.808 37.7847 746.101 28.0772 733.925 28.0772ZM733.925 97.8392C733.925 100.307 732.116 102.282 729.648 102.282H694.767C692.299 102.282 690.324 100.307 690.324 97.8392V54.238C690.324 51.77 692.299 49.9601 694.767 49.9601H729.648C732.116 49.9601 733.925 51.77 733.925 54.238V97.8392ZM823.267 28.0772H804.181L793.157 38.9364V28.0772H771.439V124H793.157V54.238C793.157 51.77 795.132 49.9601 797.6 49.9601H816.85L823.267 28.0772ZM859.3 102.282C856.832 102.282 854.857 100.307 854.857 97.8392V49.9601H879.044L885.625 28.0772H854.857V6.35885H833.139V102.282C833.139 114.293 842.846 124 854.857 124H885.625V102.282H859.3ZM931.598 43.3788L920.574 54.238V26.761C920.574 24.293 922.548 22.4831 925.016 22.4831H951.013L957.594 0.600191H920.574C908.563 0.600191 898.856 10.3076 898.856 22.4831V124H920.574V65.0972H953.316V43.3788H931.598ZM1033.59 28.0772H989.986C977.976 28.0772 968.268 37.7847 968.268 49.9601V102.282C968.268 114.293 977.976 124 989.986 124H1033.59C1045.76 124 1055.47 114.293 1055.47 102.282V49.9601C1055.47 37.7847 1045.76 28.0772 1033.59 28.0772ZM1033.59 97.8392C1033.59 100.307 1031.78 102.282 1029.31 102.282H994.429C991.961 102.282 989.986 100.307 989.986 97.8392V54.238C989.986 51.77 991.961 49.9601 994.429 49.9601H1029.31C1031.78 49.9601 1033.59 51.77 1033.59 54.238V97.8392ZM1092.82 124V0.600191H1071.1V124H1092.82ZM1108.38 124V28.0772H1130.1V124H1108.38ZM1108.38 0.600191V21.0023L1130.1 14.421V0.600191H1108.38ZM1210.97 28.0772H1167.37C1155.36 28.0772 1145.66 37.7847 1145.66 49.9601V102.282C1145.66 114.293 1155.36 124 1167.37 124H1210.97C1223.15 124 1232.86 114.293 1232.86 102.282V49.9601C1232.86 37.7847 1223.15 28.0772 1210.97 28.0772ZM1210.97 97.8392C1210.97 100.307 1209.17 102.282 1206.7 102.282H1171.82C1169.35 102.282 1167.37 100.307 1167.37 97.8392V54.238C1167.37 51.77 1169.35 49.9601 1171.82 49.9601H1206.7C1209.17 49.9601 1210.97 51.77 1210.97 54.238V97.8392Z" fill="white"/>
</svg>
