<svg width="201" height="247" viewBox="0 0 201 247" fill="none" xmlns="http://www.w3.org/2000/svg">
<path d="M200.833 106.624V107.719C200.833 107.354 200.833 106.989 200.833 106.624ZM200.833 64.6317V65.7272C200.833 65.362 200.833 64.9969 200.833 64.6317ZM200.833 65.7272C200.833 65.362 200.833 64.9969 200.833 64.6317C200.103 28.8471 170.891 0.000366211 135.106 0.000366211H0V246.476H48.1999V48.5651H134.01C144.235 48.5651 152.268 56.5984 152.268 66.8226V105.528C152.268 115.753 144.235 123.786 134.01 123.786H81.7938L67.1877 172.351H135.106C170.891 172.351 200.103 143.504 200.833 107.719C200.833 107.354 200.833 106.989 200.833 106.624V65.7272Z" fill="black"/>
</svg>
