<svg width="201" height="247" viewBox="0 0 201 247" fill="none" xmlns="http://www.w3.org/2000/svg">
<path d="M201 106.623V107.719C201 107.354 201 106.989 201 106.623ZM201 64.6313V65.7268C201 65.3616 201 64.9965 201 64.6313ZM201 65.7268C201 65.3616 201 64.9965 201 64.6313C200.27 28.8468 171.058 0 135.273 0H0.167114V246.475H48.367V48.5648H134.177C144.402 48.5648 152.435 56.5981 152.435 66.8222V105.528C152.435 115.752 144.402 123.785 134.177 123.785H81.9609L67.3548 172.35H135.273C171.058 172.35 200.27 143.503 201 107.719C201 107.354 201 106.989 201 106.623V65.7268Z" fill="white"/>
</svg>
