<svg width="1141" height="124" viewBox="0 0 1141 124" fill="none" xmlns="http://www.w3.org/2000/svg">
<path d="M90.9302 60.9842V61.4778C90.9302 61.3133 90.9302 61.1488 90.9302 60.9842ZM90.9302 42.0629V42.5565C90.9302 42.392 90.9302 42.2275 90.9302 42.0629ZM90.9302 42.5565C90.9302 42.392 90.9302 42.2275 90.9302 42.0629C90.6011 25.9387 77.4385 12.9406 61.3142 12.9406H0.437012V124H22.1554V34.8235H60.8206C65.4276 34.8235 69.0473 38.4432 69.0473 43.0501V60.4906C69.0473 65.0976 65.4276 68.7173 60.8206 68.7173H37.2924L30.7111 90.6002H61.3142C77.4385 90.6002 90.6011 77.6021 90.9302 61.4778C90.9302 61.3133 90.9302 61.1488 90.9302 60.9842V42.5565Z" fill="white"/>
<path d="M171 28.0776H127.399C115.388 28.0776 105.68 37.7851 105.68 49.9605V102.282C105.68 114.293 115.388 124 127.399 124H171C183.175 124 192.883 114.293 192.883 102.282V49.9605C192.883 37.7851 183.175 28.0776 171 28.0776ZM171 97.8396C171 100.308 169.19 102.282 166.722 102.282H131.841C129.373 102.282 127.399 100.308 127.399 97.8396V54.2384C127.399 51.7704 129.373 49.9605 131.841 49.9605H166.722C169.19 49.9605 171 51.7704 171 54.2384V97.8396Z" fill="white"/>
<path d="M260.341 28.0776H241.256L230.232 38.9368V28.0776H208.513V124H230.232V54.2384C230.232 51.7704 232.206 49.9605 234.674 49.9605H253.925L260.341 28.0776Z" fill="white"/>
<path d="M296.374 102.282C293.906 102.282 291.932 100.308 291.932 97.8396V49.9605H316.118L322.699 28.0776H291.932V6.35925H270.213V102.282C270.213 114.293 279.921 124 291.932 124H322.699V102.282H296.374Z" fill="white"/>
<path d="M368.672 43.3792L357.649 54.2384V26.7614C357.649 24.2934 359.623 22.4835 362.091 22.4835H388.087L394.669 0.600586H357.649C345.638 0.600586 335.93 10.308 335.93 22.4835V124H357.649V65.0976H390.391V43.3792H368.672Z" fill="white"/>
<path d="M470.662 28.0776H427.061C415.05 28.0776 405.343 37.7851 405.343 49.9605V102.282C405.343 114.293 415.05 124 427.061 124H470.662C482.838 124 492.545 114.293 492.545 102.282V49.9605C492.545 37.7851 482.838 28.0776 470.662 28.0776ZM470.662 97.8396C470.662 100.308 468.852 102.282 466.384 102.282H431.503C429.035 102.282 427.061 100.308 427.061 97.8396V54.2384C427.061 51.7704 429.035 49.9605 431.503 49.9605H466.384C468.852 49.9605 470.662 51.7704 470.662 54.2384V97.8396Z" fill="white"/>
<path d="M529.894 124V0.600586H508.176V124H529.894Z" fill="white"/>
<path d="M545.453 124V28.0776H567.171V124H545.453ZM545.453 0.600586V21.0027L567.171 14.4214V0.600586H545.453Z" fill="white"/>
<path d="M648.049 28.0776H604.448C592.437 28.0776 582.73 37.7851 582.73 49.9605V102.282C582.73 114.293 592.437 124 604.448 124H648.049C660.225 124 669.932 114.293 669.932 102.282V49.9605C669.932 37.7851 660.225 28.0776 648.049 28.0776ZM648.049 97.8396C648.049 100.308 646.24 102.282 643.772 102.282H608.891C606.423 102.282 604.448 100.308 604.448 97.8396V54.2384C604.448 51.7704 606.423 49.9605 608.891 49.9605H643.772C646.24 49.9605 648.049 51.7704 648.049 54.2384V97.8396Z" fill="white"/>
<path fill-rule="evenodd" clip-rule="evenodd" d="M735 28.0004C722.85 28.0004 713 37.8501 713 50.0004V102C713 114.151 722.85 124 735 124H1119C1131.15 124 1141 114.151 1141 102V50.0004C1141 37.8501 1131.15 28.0004 1119 28.0004H735ZM770.333 50.1134C776.919 50.1134 782.17 55.3644 782.17 61.9504V102H770.333V96.1264L764.459 102H746.748C740.251 102 735 96.7494 735 90.2524V81.9754C735 75.4784 740.251 70.1384 746.748 70.1384H762.501L765.972 81.9754H749.151C747.816 81.9754 746.748 83.0434 746.748 84.2894V87.8494C746.748 89.1844 747.816 90.2524 749.151 90.2524H770.333V64.2644C770.333 62.9294 769.354 61.9504 768.019 61.9504H739.717L743.277 50.1134H770.333ZM823.288 50.1134C829.874 50.1134 835.125 55.3644 835.125 61.9504V102H823.288V64.2644C823.288 62.9294 822.309 61.9504 820.974 61.9504H802.373V102H790.625V50.1134H802.373V55.9874L808.336 50.1134H823.288ZM878.889 50.1134C885.475 50.1134 890.726 55.3644 890.726 61.9504V102H878.889V96.1264L873.015 102H855.304C848.807 102 843.556 96.7494 843.556 90.2524V81.9754C843.556 75.4784 848.807 70.1384 855.304 70.1384H871.057L874.528 81.9754H857.707C856.372 81.9754 855.304 83.0434 855.304 84.2894V87.8494C855.304 89.1844 856.372 90.2524 857.707 90.2524H878.889V64.2644C878.889 62.9294 877.91 61.9504 876.575 61.9504H848.273L851.833 50.1134H878.889ZM910.929 35.2504V102H899.181V35.2504H910.929ZM952.453 50.1134H964.735L944.71 116.863H932.428L936.878 102H931.36L915.785 50.1134H928.067L940.26 90.6974L952.453 50.1134ZM980.894 87.8494C980.894 89.1844 981.962 90.2524 983.297 90.2524H997.537V102H980.894C974.397 102 969.146 96.7494 969.146 90.2524V38.3654H980.894V50.1134H997.537L993.977 61.9504H980.894V87.8494ZM1004.69 50.1134V102H1016.44V50.1134H1004.69ZM1004.69 46.2864V35.2504H1016.44V42.7264L1004.69 46.2864ZM1039.01 90.2524H1064.02V102H1036.61C1030.11 102 1024.86 96.7494 1024.86 90.2524V61.9504C1024.86 55.3644 1030.11 50.1134 1036.61 50.1134H1064.02L1060.46 61.9504H1039.01C1037.67 61.9504 1036.61 62.9294 1036.61 64.2644V87.8494C1036.61 89.1844 1037.67 90.2524 1039.01 90.2524ZM1107.39 70.1384C1113.97 70.1384 1119.22 75.4784 1119.22 81.9754V90.2524C1119.22 96.7494 1113.97 102 1107.39 102H1072.05L1075.61 90.2524H1105.07C1106.41 90.2524 1107.39 89.1844 1107.39 87.8494V84.2894C1107.39 83.0434 1106.41 81.9754 1105.07 81.9754H1083.8C1077.3 81.9754 1072.05 76.6354 1072.05 70.1384V61.9504C1072.05 55.3644 1077.3 50.1134 1083.8 50.1134H1115.66L1112.1 61.9504H1086.2C1084.87 61.9504 1083.8 62.9294 1083.8 64.2644V67.8244C1083.8 69.0704 1084.87 70.1384 1086.2 70.1384H1107.39Z" fill="white"/>
</svg>
