<svg width="452" height="394" viewBox="0 0 452 394" fill="none" xmlns="http://www.w3.org/2000/svg">
<path d="M25.8884 0H115.966L128.733 21.6328H64.189L219.165 290.092L206.043 312.434L25.8884 0Z" fill="black"/>
<path d="M198.32 0H266.686L279.453 21.6328H210.654L198.32 0Z" fill="black"/>
<path d="M211.008 36.5277H279.807L266.686 59.9336H197.887L211.008 36.5277Z" fill="black"/>
<path d="M361.373 36.5277H451.63L245.408 394H219.519L412.441 59.9336H348.252L361.373 36.5277Z" fill="black"/>
<path d="M90.0774 36.5277H129.206L115.966 59.9336H103.554L90.0774 36.5277Z" fill="black"/>
<path d="M12.7669 7.80211L206.398 342.223L361.019 74.8282H386.553L206.398 386.907L0 29.7895L12.7669 7.80211Z" fill="black"/>
<path d="M185.12 7.44749L197.887 29.4349L185.12 52.1316L171.998 29.4349L185.12 7.44749Z" fill="black"/>
<path d="M335.84 7.44749L348.607 29.4349L335.84 52.1316L322.718 29.4349L335.84 7.44749Z" fill="black"/>
<path d="M348.961 0H438.541L451.296 21.6328H361.295L348.961 0Z" fill="black"/>
</svg>
