<svg width="1091" height="124" viewBox="0 0 1091 124" fill="none" xmlns="http://www.w3.org/2000/svg">
<path d="M90.9302 60.9842V61.4778C90.9302 61.3133 90.9302 61.1488 90.9302 60.9842ZM90.9302 42.0629V42.5565C90.9302 42.392 90.9302 42.2275 90.9302 42.0629ZM90.9302 42.5565C90.9302 42.392 90.9302 42.2275 90.9302 42.0629C90.6011 25.9387 77.4385 12.9406 61.3142 12.9406H0.437012V124H22.1554V34.8235H60.8206C65.4276 34.8235 69.0473 38.4432 69.0473 43.0501V60.4906C69.0473 65.0976 65.4276 68.7173 60.8206 68.7173H37.2924L30.7111 90.6002H61.3142C77.4385 90.6002 90.6011 77.6021 90.9302 61.4778C90.9302 61.3133 90.9302 61.1488 90.9302 60.9842V42.5565Z" fill="white"/>
<path d="M171 28.0776H127.399C115.388 28.0776 105.68 37.7851 105.68 49.9605V102.282C105.68 114.293 115.388 124 127.399 124H171C183.175 124 192.883 114.293 192.883 102.282V49.9605C192.883 37.7851 183.175 28.0776 171 28.0776ZM171 97.8396C171 100.308 169.19 102.282 166.722 102.282H131.841C129.373 102.282 127.399 100.308 127.399 97.8396V54.2384C127.399 51.7704 129.373 49.9605 131.841 49.9605H166.722C169.19 49.9605 171 51.7704 171 54.2384V97.8396Z" fill="white"/>
<path d="M260.341 28.0776H241.256L230.232 38.9368V28.0776H208.513V124H230.232V54.2384C230.232 51.7704 232.206 49.9605 234.674 49.9605H253.925L260.341 28.0776Z" fill="white"/>
<path d="M296.374 102.282C293.906 102.282 291.932 100.308 291.932 97.8396V49.9605H316.118L322.699 28.0776H291.932V6.35925H270.213V102.282C270.213 114.293 279.921 124 291.932 124H322.699V102.282H296.374Z" fill="white"/>
<path d="M368.672 43.3792L357.649 54.2384V26.7614C357.649 24.2934 359.623 22.4835 362.091 22.4835H388.087L394.669 0.600586H357.649C345.638 0.600586 335.93 10.308 335.93 22.4835V124H357.649V65.0976H390.391V43.3792H368.672Z" fill="white"/>
<path d="M470.662 28.0776H427.061C415.05 28.0776 405.343 37.7851 405.343 49.9605V102.282C405.343 114.293 415.05 124 427.061 124H470.662C482.838 124 492.545 114.293 492.545 102.282V49.9605C492.545 37.7851 482.838 28.0776 470.662 28.0776ZM470.662 97.8396C470.662 100.308 468.852 102.282 466.384 102.282H431.503C429.035 102.282 427.061 100.308 427.061 97.8396V54.2384C427.061 51.7704 429.035 49.9605 431.503 49.9605H466.384C468.852 49.9605 470.662 51.7704 470.662 54.2384V97.8396Z" fill="white"/>
<path d="M529.894 124V0.600586H508.176V124H529.894Z" fill="white"/>
<path d="M545.453 124V28.0776H567.171V124H545.453ZM545.453 0.600586V21.0027L567.171 14.4214V0.600586H545.453Z" fill="white"/>
<path d="M648.049 28.0776H604.448C592.437 28.0776 582.73 37.7851 582.73 49.9605V102.282C582.73 114.293 592.437 124 604.448 124H648.049C660.225 124 669.932 114.293 669.932 102.282V49.9605C669.932 37.7851 660.225 28.0776 648.049 28.0776ZM648.049 97.8396C648.049 100.308 646.24 102.282 643.772 102.282H608.891C606.423 102.282 604.448 100.308 604.448 97.8396V54.2384C604.448 51.7704 606.423 49.9605 608.891 49.9605H643.772C646.24 49.9605 648.049 51.7704 648.049 54.2384V97.8396Z" fill="white"/>
<path d="M815.213 90.2524C816.548 90.2524 817.527 89.1844 817.527 87.8494V64.2644C817.527 62.9294 816.548 61.9504 815.213 61.9504H796.345C795.01 61.9504 793.942 62.9294 793.942 64.2644V87.8494C793.942 89.1844 795.01 90.2524 796.345 90.2524H815.213Z" fill="white"/>
<path d="M978.959 90.2524C980.294 90.2524 981.273 89.1844 981.273 87.8494V64.2644C981.273 62.9294 980.294 61.9504 978.959 61.9504H960.091C958.756 61.9504 957.688 62.9294 957.688 64.2644V87.8494C957.688 89.1844 958.756 90.2524 960.091 90.2524H978.959Z" fill="white"/>
<path fill-rule="evenodd" clip-rule="evenodd" d="M735 28.0004C722.85 28.0004 713 37.8501 713 50.0004V102C713 114.151 722.85 124 735 124H1069C1081.15 124 1091 114.151 1091 102V50.0004C1091 37.8501 1081.15 28.0004 1069 28.0004H735ZM749.151 90.2524H774.16V102H746.748C740.251 102 735 96.7494 735 90.2524V61.9504C735 55.3644 740.251 50.1134 746.748 50.1134H774.16L770.6 61.9504H749.151C747.816 61.9504 746.748 62.9294 746.748 64.2644V87.8494C746.748 89.1844 747.816 90.2524 749.151 90.2524ZM793.942 50.1134H817.527C824.113 50.1134 829.364 55.3644 829.364 61.9504V90.2524C829.364 96.7494 824.113 102 817.527 102H793.942C787.445 102 782.194 96.7494 782.194 90.2524V61.9504C782.194 55.3644 787.445 50.1134 793.942 50.1134ZM870.482 50.1134C877.068 50.1134 882.319 55.3644 882.319 61.9504V102H870.482V64.2644C870.482 62.9294 869.503 61.9504 868.168 61.9504H849.567V102H837.819V50.1134H849.567V55.9874L855.53 50.1134H870.482ZM926.083 70.1384C932.669 70.1384 937.92 75.4784 937.92 81.9754V90.2524C937.92 96.7494 932.669 102 926.083 102H890.75L894.31 90.2524H923.769C925.104 90.2524 926.083 89.1844 926.083 87.8494V84.2894C926.083 83.0434 925.104 81.9754 923.769 81.9754H902.498C896.001 81.9754 890.75 76.6354 890.75 70.1384V61.9504C890.75 55.3644 896.001 50.1134 902.498 50.1134H934.36L930.8 61.9504H904.901C903.566 61.9504 902.498 62.9294 902.498 64.2644V67.8244C902.498 69.0704 903.566 70.1384 904.901 70.1384H926.083ZM957.688 50.1134H981.273C987.859 50.1134 993.11 55.3644 993.11 61.9504V90.2524C993.11 96.7494 987.859 102 981.273 102H957.688C951.191 102 945.94 96.7494 945.94 90.2524V61.9504C945.94 55.3644 951.191 50.1134 957.688 50.1134ZM1013.31 35.2504V102H1001.57V35.2504H1013.31ZM1043 70.1384H1057.06V64.2644C1057.06 62.9294 1056.08 61.9504 1054.75 61.9504H1035.88C1034.55 61.9504 1033.48 62.9294 1033.48 64.2644V87.8494C1033.48 89.1844 1034.55 90.2524 1035.88 90.2524H1066.5L1063.03 102H1033.48C1026.98 102 1021.73 96.7494 1021.73 90.2524V61.9504C1021.73 55.3644 1026.98 50.1134 1033.48 50.1134H1057.06C1063.65 50.1134 1068.9 55.3644 1068.9 61.9504V81.9754H1039.44L1043 70.1384Z" fill="white"/>
</svg>
